<svg xmlns="http://www.w3.org/2000/svg" xmlns:xlink="http://www.w3.org/1999/xlink" version="1.1"
  id="Capa_1" viewBox="-275 367 60 60" xml:space="preserve" width="256px" height="256px"
  fill="#000000"><g id="SVGRepo_bgCarrier" stroke-width="0"></g><g id="SVGRepo_tracerCarrier" stroke-linecap="round" stroke-linejoin="round"></g><g id="SVGRepo_iconCarrier"> <style type="text/css"> .st0{fill:#FFFFFF;fill-opacity:0;} .st1{fill:#ff76f6;} .st2{fill:#5a64ff;} .st3{fill:#c5c4dd;} .st4{fill:#fff7f9;} .st5{fill:#2e2f42;} </style> <title>suitcase-2</title> <desc>Created with Sketch.</desc> <g id="Travel"> <g id="suitcase-2"> <g id="fill" transform="translate(1.000000, 1.000000)"> <path id="Combined-Shape" class="st1" d="M-231,425h6v-46h-6V425z M-267,425h6v-46h-6V425z"></path> <path id="Combined-Shape_1_" class="st2" d="M-235,379h-4h-14h-4h-4v46h30v-46H-235z M-254.6,396l10.4-6l4,6.9l-1.8,1l0,0h5v8 h-4.7l-4.1,6.5l-5.2-3l2-3.5v-4v0l-1.6,0.9L-254.6,396z M-217,383v38c0,2.2-1.8,4-4,4h-4v-46h4C-218.8,379-217,380.8-217,383z M-267,379v46h-4c-2.2,0-4-1.8-4-4v-38c0-2.2,1.8-4,4-4H-267z"></path> <path id="Fill-13" class="st3" d="M-235,378v1h-4v-4c0-2.2-1.8-4-4-4h-6c-2.2,0-4,1.8-4,4v4h-4v-4c0-4.1,3.8-8,8-8h6 c4.2,0,8,3.8,8,8V378z"></path> <polygon id="Fill-1" class="st4" points="-249,406 -249,402 -249,402 -242,398 -242,398 -237,398 -237,406 -241.7,406 "></polygon> <polygon id="Fill-7" class="st4" points="-245.8,412.5 -251,409.5 -249,406 -241.7,406 "></polygon> <polygon id="Fill-9" class="st4" points="-244.2,390 -240.2,396.9 -242,398 -249,402 -250.6,402.9 -254.6,396 "></polygon> </g> <path class="st5" d="M-220,426.5h-10c-0.3,0-0.5-0.2-0.5-0.5v-42c0-0.3,0.2-0.5,0.5-0.5s0.5,0.2,0.5,0.5v41.5h9.5 c1.9,0,3.5-1.6,3.5-3.5v-38c0-1.9-1.6-3.5-3.5-3.5c-0.3,0-0.5-0.2-0.5-0.5s0.2-0.5,0.5-0.5c2.5,0,4.5,2,4.5,4.5v38 C-215.5,424.5-217.5,426.5-220,426.5z M-234,426.5h-32c-0.3,0-0.5-0.2-0.5-0.5v-42.3c0-0.3,0.2-0.5,0.5-0.5s0.5,0.2,0.5,0.5v41.8 h31.5c0.3,0,0.5,0.2,0.5,0.5S-233.7,426.5-234,426.5z M-270,426.5c-2.5,0-4.5-2-4.5-4.5v-38c0-2.5,2-4.5,4.5-4.5h10 c0.3,0,0.5,0.2,0.5,0.5v42c0,0.3-0.2,0.5-0.5,0.5s-0.5-0.2-0.5-0.5v-41.5h-9.5c-1.9,0-3.5,1.6-3.5,3.5v38c0,1.9,1.6,3.5,3.5,3.5 c0.3,0,0.5,0.2,0.5,0.5S-269.7,426.5-270,426.5z M-224,422.5c-0.3,0-0.5-0.2-0.5-0.5v-41.5H-256c-0.3,0-0.5-0.2-0.5-0.5v-4 c0-4.4,4.1-8.5,8.5-8.5h6c4.4,0,8.5,4.1,8.5,8.5v3c0,0.3-0.2,0.5-0.5,0.5h10c0.3,0,0.5,0.2,0.5,0.5v42 C-223.5,422.3-223.7,422.5-224,422.5z M-237.5,379.5h3.5c-0.3,0-0.5-0.2-0.5-0.5v-3c0-3.9-3.6-7.5-7.5-7.5h-6 c-3.9,0-7.5,3.6-7.5,7.5v3.5h3V376c0-2.5,2-4.5,4.5-4.5h6c2.5,0,4.5,2,4.5,4.5V379.5z M-251.5,379.5h13V376c0-1.9-1.6-3.5-3.5-3.5 h-6c-1.9,0-3.5,1.6-3.5,3.5V379.5z M-244.8,414c-0.1,0-0.2,0-0.2-0.1l-5.2-3c-0.2-0.1-0.3-0.4-0.2-0.7l2-3.5 c0.1-0.2,0.3-0.3,0.4-0.3h11.5V399c0-0.3,0.2-0.5,0.5-0.5s0.5,0.2,0.5,0.5v8c0,0.3-0.2,0.5-0.5,0.5h-11.7l-1.6,2.8l4.3,2.5 l1.6-2.7c0.1-0.2,0.5-0.3,0.7-0.2c0.2,0.1,0.3,0.4,0.2,0.7l-1.8,3.1C-244.5,413.9-244.6,414-244.8,414z M-249.6,404.4 c-0.2,0-0.3-0.1-0.4-0.3l-4-6.9c-0.1-0.1-0.1-0.3,0-0.4s0.1-0.2,0.2-0.3l10.4-6c0.2-0.1,0.5-0.1,0.7,0.2l4,6.9 c0.1,0.1,0.1,0.3,0.1,0.4c0,0.1-0.1,0.2-0.2,0.3l-10.4,6C-249.5,404.4-249.5,404.4-249.6,404.4z M-253,397.2l3.5,6.1l9.5-5.5 l-3.5-6.1L-253,397.2z"></path> </g> </g> </g></svg>